HIERARCHY
ROOT Hips
{
	OFFSET 0.00000 0.00000 0.00000
	CHANNELS 6 Xposition Yposition Zposition Zrotation Yrotation Xrotation 
	JOINT RightUpLegDummy
	{
		OFFSET 0 0 0
		CHANNELS 3 Zrotation Yrotation Xrotation
		JOINT RightUpLeg
		{
			OFFSET -3.52197 -3.41223 0.04002
			CHANNELS 3 Zrotation Yrotation Xrotation
			JOINT RightLeg
			{
				OFFSET 0.00006 -17.42390 1.60435
				CHANNELS 3 Zrotation Yrotation Xrotation
				JOINT RightFoot
				{
					OFFSET 0.06153 -16.50078 -1.63901
					CHANNELS 3 Zrotation Yrotation Xrotation
					JOINT RightToes
					{
						OFFSET 0.00298 -1.73825 3.34613
						CHANNELS 3 Zrotation Yrotation Xrotation
						End Site
						{
							OFFSET 0.00480 -0.05416 3.85043
						}
					}
				}
			}
		}
	}
	JOINT SpineDummy
	{
		OFFSET 0 0 0
		CHANNELS 3 Zrotation Yrotation Xrotation
		JOINT Spine
		{
			OFFSET 0.00000 4.68130 0.00000
			CHANNELS 3 Zrotation Yrotation Xrotation
			JOINT Spine1
			{
				OFFSET -0.00000 10.10138 0.05002
				CHANNELS 3 Zrotation Yrotation Xrotation
				JOINT HEadDummy
				{
					OFFSET 0 0 0
					CHANNELS 3 Zrotation Yrotation Xrotation
					JOINT Head
					{
						OFFSET -0.00000 3.43865 0.00438
						CHANNELS 3 Zrotation Yrotation Xrotation
						End Site
						{
							OFFSET -0.11417 5.02924 0.98962
						}
					}
				}
				JOINT LeftShoulder1Dummy
				{
					OFFSET 0 0 0
					CHANNELS 3 Zrotation Yrotation Xrotation
					JOINT LeftShoulder1
					{
						OFFSET 3.53937 -0.14262 -0.08662
						CHANNELS 3 Zrotation Yrotation Xrotation
						JOINT LeftArm
						{
							OFFSET 4.04833 -0.00133 0.12681
							CHANNELS 3 Zrotation Yrotation Xrotation
							JOINT LeftForeArm
							{
								OFFSET 10.33880 -0.01036 -0.55515
								CHANNELS 3 Zrotation Yrotation Xrotation
								JOINT LeftHand
								{
									OFFSET 8.69677 0.07543 0.40060
									CHANNELS 3 Zrotation Yrotation Xrotation
									End Site
									{
										OFFSET 5.28377 -0.21905 0.59205
									}
								}
							}
						}
					}
				}
				JOINT RightShoulderDummy
				{
					OFFSET 0 0 0
					CHANNELS 3 Zrotation Yrotation Xrotation
					JOINT RightShoulder
					{
						OFFSET -3.53937 -0.14262 -0.08660
						CHANNELS 3 Zrotation Yrotation Xrotation
						JOINT RightArm
						{
							OFFSET -4.04833 -0.00133 0.12683
							CHANNELS 3 Zrotation Yrotation Xrotation
							JOINT RightForeArm
							{
								OFFSET -10.37987 -0.01039 -0.55511
								CHANNELS 3 Zrotation Yrotation Xrotation
								JOINT RightHand
								{
									OFFSET -8.67398 0.07538 0.40058
									CHANNELS 3 Zrotation Yrotation Xrotation
									End Site
									{
										OFFSET -5.24810 -0.21916 0.59204
									}
								}
							}
						}
					}
				}
			}
		}
	}
	JOINT LeftUpLegDummy
	{
		OFFSET 0 0 0
		CHANNELS 3 Zrotation Yrotation Xrotation
		JOINT LeftUpLeg
		{
			OFFSET 3.52197 -3.41223 0.04002
			CHANNELS 3 Zrotation Yrotation Xrotation
			JOINT LeftLeg
			{
				OFFSET -0.00012 -17.42399 1.60337
				CHANNELS 3 Zrotation Yrotation Xrotation
				JOINT LeftFoot
				{
					OFFSET -0.09972 -16.50070 -1.63802
					CHANNELS 3 Zrotation Yrotation Xrotation
					JOINT LeftToes
					{
						OFFSET -0.01575 -1.73823 3.34611
						CHANNELS 3 Zrotation Yrotation Xrotation
						End Site
						{
							OFFSET 0.03150 -0.01868 3.85031
						}
					}
				}
			}
		}
	}
}
MOTION
Frames: 16
Frame Time: 0.033333
0.4822 38.4360 34.8348 1.9763 -3.7940 -5.6597 0.0000 0.0000 0.0000 -6.2026 -7.5794 11.6267 3.1212 3.9695 34.7713 9.6774 -0.7876 -2.2068 0.0000 -0.0000 0.0000 0.0000 0.0000 0.0000 -0.9551 2.0549 7.3063 0.9392 1.9620 -1.0851 -0.0000 0.0000 -0.0000 0.8981 1.2315 -4.2196 -0.0000 0.0000 -0.0000 -34.4148 -2.6322 2.4820 -43.7293 -11.5225 -23.2742 -7.0111 4.9348 55.4934 13.4753 -2.2365 -0.8668 -0.0000 0.0000 -0.0000 35.0905 5.2023 3.5796 38.3654 4.4541 -18.9642 9.9699 0.4256 22.0265 -13.0492 2.6450 -0.8829 0.0000 0.0000 0.0000 -3.8634 -0.7664 -15.1576 1.3126 8.6469 14.8482 0.0752 -0.0242 2.9395 0.0000 0.0000 -0.0000
0.6213 38.3085 36.0226 2.4636 -3.7397 -5.9601 0.0000 0.0000 0.0000 -7.1052 -6.9475 7.4385 2.1412 2.0785 43.9079 11.5742 -1.8382 6.9397 0.0000 -0.0000 0.0000 0.0000 0.0000 0.0000 -1.5158 1.9217 8.1428 1.0538 1.8119 -1.9004 -0.0000 0.0000 -0.0000 0.5657 1.3156 -4.2411 -0.0000 0.0000 -0.0000 -34.0563 -2.6034 2.4482 -43.8771 -11.2298 -22.4747 -7.5208 4.9322 55.4200 13.0733 -2.3744 -0.8546 -0.0000 0.0000 -0.0000 34.8521 5.1666 3.5438 38.9392 2.9385 -20.3789 9.4557 -1.4706 23.2204 -12.6519 2.4769 -0.8386 0.0000 0.0000 0.0000 -4.7913 -0.1970 -14.8122 1.2570 8.0132 18.6824 1.8972 -0.1849 -0.0491 0.0000 0.0000 -0.0000
0.7498 38.2110 37.1192 2.5330 -4.3822 -6.7607 0.0000 0.0000 0.0000 -6.9220 -5.0913 3.0907 -0.8187 -0.3149 52.1170 12.1241 -2.5459 12.8219 0.0000 -0.0000 0.0000 0.0000 0.0000 0.0000 -1.5154 1.9328 9.7497 1.1700 1.8016 -2.4432 -0.0000 0.0000 -0.0000 -0.0025 1.8124 -5.2909 -0.0000 0.0000 -0.0000 -34.1788 -2.5724 2.4433 -43.5443 -11.1878 -21.2258 -8.4705 4.9767 53.7705 13.0944 -2.6758 -0.8880 -0.0000 0.0000 -0.0000 34.8410 5.1789 3.5479 38.9637 2.1059 -21.1414 9.1934 -2.8102 23.7946 -11.7998 2.0761 -0.7421 0.0000 0.0000 0.0000 -5.1205 0.2179 -13.7358 1.5982 8.2810 21.9899 3.5184 -0.2288 -3.3243 0.0000 0.0000 -0.0000
0.8454 38.2229 38.2835 2.2233 -4.8942 -7.6394 0.0000 0.0000 0.0000 -5.9974 -3.4497 -0.8978 -4.8911 -2.2373 58.2176 10.4370 -2.1975 12.7865 0.0000 -0.0000 0.0000 0.0000 0.0000 0.0000 -1.4853 1.7033 11.0901 1.7016 1.4719 -2.5425 -0.0000 0.0000 -0.0000 -0.5503 2.7525 -6.6827 -0.0000 0.0000 -0.0000 -34.4928 -2.5488 2.4531 -43.0379 -11.3523 -20.0115 -9.4096 5.0329 51.6806 13.6467 -2.9743 -0.9597 -0.0000 0.0000 -0.0000 34.9492 5.2067 3.5688 38.6913 1.8232 -21.2062 9.2230 -3.6693 24.0199 -11.3884 1.7799 -0.6885 0.0000 0.0000 0.0000 -5.0363 0.6565 -11.6406 1.9120 8.4898 23.7824 4.1948 -0.1598 -6.0255 0.0000 0.0000 -0.0000
0.9056 38.3134 39.5173 1.5526 -4.5515 -8.1901 0.0000 0.0000 0.0000 -4.6162 -2.8166 -4.6096 -8.7608 -3.5554 61.5563 7.4577 -1.3175 9.1495 0.0000 -0.0000 0.0000 0.0000 0.0000 0.0000 -1.5362 1.0210 11.7398 2.6277 0.6055 -2.3907 -0.0000 0.0000 -0.0000 -0.8809 3.8091 -7.7037 -0.0000 0.0000 -0.0000 -34.5269 -2.5692 2.4635 -42.7900 -12.0158 -19.1900 -9.9454 5.0705 50.2531 14.4315 -3.1003 -1.0315 -0.0000 0.0000 -0.0000 34.9844 5.2113 3.5738 38.6240 1.6160 -21.0013 9.3217 -3.7240 24.1947 -11.4929 1.7301 -0.6906 0.0000 0.0000 0.0000 -4.7428 1.1887 -9.1852 1.8973 7.7573 24.4918 4.7037 -0.0826 -8.1286 0.0000 0.0000 -0.0000
0.9453 38.4020 40.7467 0.6475 -3.6931 -8.5602 0.0000 0.0000 0.0000 -3.0220 -2.5383 -7.9810 -11.2591 -4.5175 62.0478 5.0055 -0.7266 5.7259 0.0000 -0.0000 0.0000 0.0000 0.0000 0.0000 -1.4767 0.1501 12.1632 3.6114 -0.4704 -2.3009 -0.0000 0.0000 -0.0000 -0.9580 4.6414 -8.0846 -0.0000 0.0000 -0.0000 -34.1598 -2.6303 2.4654 -42.8818 -13.3042 -18.7694 -10.0451 5.0813 49.8534 14.9915 -3.1211 -1.0756 -0.0000 0.0000 -0.0000 34.9885 5.2076 3.5727 38.7950 1.1437 -20.7036 9.4359 -2.8122 23.8681 -11.5603 1.8293 -0.7039 0.0000 0.0000 0.0000 -4.2671 1.6867 -6.8811 1.7912 6.5345 25.0891 5.5550 -0.0001 -10.0828 0.0000 0.0000 -0.0000
0.9759 38.4651 41.9654 -0.2639 -3.0188 -8.9902 0.0000 0.0000 0.0000 -1.4258 -1.8664 -10.8020 -12.0788 -5.3770 60.0108 3.2971 -0.4170 3.5410 0.0000 -0.0000 0.0000 0.0000 0.0000 0.0000 -1.3069 -0.5772 12.6511 4.5001 -1.3847 -2.3031 -0.0000 0.0000 -0.0000 -0.8761 5.1663 -8.0065 -0.0000 0.0000 -0.0000 -33.6829 -2.6825 2.4565 -43.0519 -14.9502 -18.4996 -9.9719 5.0767 50.0367 15.1065 -3.1271 -1.0849 -0.0000 0.0000 -0.0000 35.0837 5.2252 3.5883 38.8914 0.5844 -20.2058 9.6664 -1.4622 22.7462 -11.4349 2.0063 -0.7121 0.0000 0.0000 0.0000 -3.5884 2.1357 -4.4909 1.6605 5.5761 25.5398 6.2488 0.1133 -12.0953 0.0000 0.0000 -0.0000
0.9994 38.5170 43.1970 -1.0668 -2.6140 -9.3205 0.0000 0.0000 0.0000 -0.0360 -1.0991 -13.1004 -11.6878 -6.3124 55.6557 2.1609 -0.2373 1.5308 0.0000 -0.0000 0.0000 0.0000 0.0000 0.0000 -1.1526 -1.1342 12.8987 5.3610 -2.1279 -2.2129 -0.0000 0.0000 -0.0000 -0.7838 5.4252 -7.8247 -0.0000 0.0000 -0.0000 -33.4511 -2.6945 2.4468 -43.0041 -16.6386 -18.0968 -10.0191 5.0729 50.1439 14.9411 -3.0643 -1.0650 -0.0000 0.0000 -0.0000 35.2090 5.2499 3.6097 38.8653 0.2729 -19.5760 9.9570 -0.3102 21.5332 -11.3564 2.1937 -0.7241 0.0000 0.0000 0.0000 -2.7746 2.5957 -1.9117 1.3767 4.8550 25.4104 6.5213 0.2324 -13.9508 0.0000 0.0000 -0.0000
1.0169 38.5772 44.4387 -1.7594 -2.2523 -9.3413 0.0000 0.0000 0.0000 1.0159 -0.8071 -14.8881 -10.5052 -7.3764 48.9101 1.8770 -0.1864 0.0641 0.0000 -0.0000 0.0000 0.0000 0.0000 0.0000 -0.9775 -1.5985 12.6522 6.1250 -2.7708 -1.9416 -0.0000 0.0000 -0.0000 -0.7369 5.4245 -7.7682 -0.0000 0.0000 -0.0000 -33.4871 -2.6827 2.4444 -42.7444 -18.2460 -17.4723 -10.2529 5.0754 49.9699 14.8752 -2.9593 -1.0473 -0.0000 0.0000 -0.0000 35.2274 5.2515 3.6120 38.9565 0.2407 -19.0717 10.1434 0.5110 21.0113 -11.3483 2.2404 -0.7277 0.0000 0.0000 0.0000 -2.0082 2.9142 0.6424 1.0844 4.2861 24.6791 6.7134 0.3328 -15.4297 0.0000 0.0000 -0.0000
1.0298 38.6472 45.6742 -2.2628 -2.0661 -9.1809 0.0000 0.0000 0.0000 1.7609 -0.7978 -15.8053 -8.8105 -8.5289 39.8311 2.3349 -0.2361 0.2115 0.0000 -0.0000 0.0000 0.0000 0.0000 0.0000 -0.7163 -1.8953 12.1346 6.5606 -3.1862 -1.5795 -0.0000 0.0000 -0.0000 -0.6307 5.2362 -7.8213 -0.0000 0.0000 -0.0000 -33.4758 -2.6715 2.4393 -42.5961 -19.6690 -16.7164 -10.5589 5.0839 49.5610 15.1351 -2.9896 -1.0701 -0.0000 0.0000 -0.0000 35.1692 5.2397 3.6019 39.2222 0.3646 -18.8030 10.1956 1.0365 21.0463 -11.2602 2.1176 -0.7109 0.0000 0.0000 0.0000 -1.5012 2.9971 3.2211 1.0314 4.2027 23.4403 6.8213 0.4111 -16.5688 0.0000 0.0000 -0.0000
1.0321 38.7294 46.8883 -2.4350 -2.2556 -9.0195 0.0000 0.0000 0.0000 2.2648 -0.6069 -15.6288 -6.8003 -9.6399 28.9387 2.9592 -0.3285 1.5355 0.0000 -0.0000 0.0000 0.0000 0.0000 0.0000 -0.5302 -1.9555 11.6404 6.6395 -3.2908 -1.2570 -0.0000 0.0000 -0.0000 -0.3837 5.0407 -7.8499 -0.0000 0.0000 -0.0000 -33.2419 -2.6672 2.4230 -42.7388 -20.7097 -15.8879 -10.9076 5.1063 48.6536 15.5170 -3.1816 -1.1223 -0.0000 0.0000 -0.0000 35.1817 5.2469 3.6060 39.4610 0.6317 -18.6820 10.2067 1.1337 21.1387 -11.1075 2.0240 -0.6927 0.0000 0.0000 0.0000 -1.3778 2.9629 6.1154 1.1407 4.7110 21.4070 6.5799 0.4412 -17.2086 0.0000 0.0000 -0.0000
1.0095 38.8409 48.0605 -2.2628 -2.5539 -8.7682 0.0000 0.0000 0.0000 2.5435 -0.4444 -14.7060 -4.5346 -10.4222 17.1578 3.6251 -0.4378 2.7237 0.0000 -0.0000 0.0000 0.0000 0.0000 0.0000 -0.6790 -1.8963 11.1442 6.6546 -3.2592 -1.0452 -0.0000 0.0000 -0.0000 -0.1315 4.9364 -7.7935 -0.0000 0.0000 -0.0000 -33.0661 -2.6729 2.4143 -42.8969 -21.2892 -14.9945 -11.3705 5.1464 47.0537 15.6269 -3.3545 -1.1527 -0.0000 0.0000 -0.0000 35.3198 5.2755 3.6301 39.5472 0.9887 -18.6229 10.2270 0.8542 21.2108 -11.0021 2.0654 -0.6895 0.0000 0.0000 0.0000 -1.5847 2.9287 9.2271 1.1099 5.3391 18.4529 6.3113 0.4122 -16.9636 0.0000 0.0000 -0.0000
0.9512 38.9399 49.2064 -1.8847 -2.5957 -8.3233 0.0000 0.0000 0.0000 2.4861 -0.2875 -13.6133 -2.1482 -11.0121 6.2377 4.8064 -0.5745 2.5613 0.0000 -0.0000 0.0000 0.0000 0.0000 0.0000 -1.1890 -1.8475 10.4606 6.8467 -3.2713 -0.8808 -0.0000 0.0000 -0.0000 -0.0746 4.8713 -7.6974 -0.0000 0.0000 -0.0000 -33.2646 -2.6871 2.4322 -42.7854 -21.5767 -14.1262 -11.8974 5.1869 45.3408 15.4651 -3.4440 -1.1516 -0.0000 0.0000 -0.0000 35.5035 5.3027 3.6579 39.5511 1.2471 -18.5799 10.2521 0.5467 21.3764 -10.9992 2.1300 -0.6950 0.0000 0.0000 0.0000 -1.8750 3.0280 11.9469 0.8234 5.4937 15.6639 6.2748 0.3666 -16.2432 0.0000 0.0000 -0.0000
0.8573 38.9410 50.3890 -1.4557 -2.4992 -7.8530 0.0000 0.0000 0.0000 2.1271 0.6435 -12.9467 -0.2626 -11.5978 -0.9010 6.5123 -0.6649 0.3800 0.0000 -0.0000 0.0000 0.0000 0.0000 0.0000 -1.7989 -1.7837 9.5584 7.1057 -3.2811 -0.6002 -0.0000 0.0000 -0.0000 -0.1936 4.8273 -7.5973 -0.0000 0.0000 -0.0000 -33.6425 -2.6853 2.4551 -42.6465 -21.7316 -13.4280 -12.3069 5.2087 44.3226 15.4437 -3.5650 -1.1653 -0.0000 0.0000 -0.0000 35.6409 5.3224 3.6785 39.5592 1.3592 -18.5000 10.2919 0.3250 21.5689 -11.1488 2.1827 -0.7094 0.0000 0.0000 0.0000 -1.9301 3.5761 13.9220 0.3889 4.8215 14.4749 5.7463 0.3319 -16.0424 0.0000 0.0000 -0.0000
0.7321 38.8651 51.6255 -1.0938 -2.5276 -7.5821 0.0000 0.0000 0.0000 2.4764 0.9610 -12.8018 0.1484 -10.1887 -2.8361 7.3715 -0.6084 -2.1138 0.0000 -0.0000 0.0000 0.0000 0.0000 0.0000 -2.2463 -1.6780 8.6711 7.2236 -3.2007 -0.2697 -0.0000 0.0000 -0.0000 -0.3084 4.8783 -7.4243 -0.0000 0.0000 -0.0000 -33.8026 -2.6454 2.4492 -42.8820 -21.6340 -13.0012 -12.5053 5.2162 43.9313 15.7023 -3.7299 -1.2067 -0.0000 0.0000 -0.0000 35.7322 5.3471 3.6970 39.5551 1.4836 -18.4119 10.3385 -0.0827 21.7936 -11.3977 2.3063 -0.7370 0.0000 0.0000 0.0000 -1.4918 4.9717 15.5502 -0.1474 3.0284 14.6904 4.2260 0.2746 -16.1448 0.0000 0.0000 -0.0000
0.5845 38.7871 52.9247 -0.9120 -2.4874 -7.5014 0.0000 0.0000 0.0000 3.1462 1.4023 -12.4669 -0.1743 -8.5959 -1.6921 5.9442 -0.5079 -1.5499 0.0000 -0.0000 0.0000 0.0000 0.0000 0.0000 -2.3923 -1.6599 7.7630 7.1487 -3.1452 0.0621 -0.0000 0.0000 -0.0000 -0.3774 5.0007 -7.0404 -0.0000 0.0000 -0.0000 -33.8325 -2.5923 2.4299 -43.3713 -21.0458 -12.9550 -12.5306 5.2258 43.5502 15.7949 -3.8385 -1.2281 -0.0000 0.0000 -0.0000 35.8454 5.3777 3.7200 39.4829 1.6248 -18.4653 10.3321 -0.7975 22.2387 -11.5006 2.4268 -0.7549 0.0000 0.0000 0.0000 -0.4269 7.2945 17.1229 -0.6954 0.0034 15.7283 2.5259 0.1884 -15.6271 0.0000 0.0000 -0.0000
